<svg width="210" height="83" viewBox="0 0 210 83" fill="none" xmlns="http://www.w3.org/2000/svg">
<path d="M2.89062 8.36719H13.457C15.8398 8.36719 17.6562 8.54948 18.9062 8.91406C20.5859 9.40885 22.0247 10.2878 23.2227 11.5508C24.4206 12.8138 25.332 14.3633 25.957 16.1992C26.582 18.0221 26.8945 20.2747 26.8945 22.957C26.8945 25.3138 26.6016 27.3451 26.0156 29.0508C25.2995 31.1341 24.2773 32.8203 22.9492 34.1094C21.9466 35.0859 20.5924 35.8477 18.8867 36.3945C17.6107 36.7982 15.9049 37 13.7695 37H2.89062V8.36719ZM8.67188 13.2109V32.1758H12.9883C14.6029 32.1758 15.7682 32.0846 16.4844 31.9023C17.4219 31.668 18.1966 31.2708 18.8086 30.7109C19.4336 30.151 19.9414 29.2331 20.332 27.957C20.7227 26.668 20.918 24.9167 20.918 22.7031C20.918 20.4896 20.7227 18.7904 20.332 17.6055C19.9414 16.4206 19.3945 15.4961 18.6914 14.832C17.9883 14.168 17.0964 13.7188 16.0156 13.4844C15.2083 13.3021 13.6263 13.2109 11.2695 13.2109H8.67188ZM31.7773 13.4453V8.36719H37.2656V13.4453H31.7773ZM31.7773 37V16.2578H37.2656V37H31.7773ZM47.0117 22.5859L42.0312 21.6875C42.5911 19.6823 43.5547 18.1979 44.9219 17.2344C46.2891 16.2708 48.3203 15.7891 51.0156 15.7891C53.4635 15.7891 55.2865 16.082 56.4844 16.668C57.6823 17.2409 58.5221 17.9766 59.0039 18.875C59.4987 19.7604 59.7461 21.3945 59.7461 23.7773L59.6875 30.1836C59.6875 32.0065 59.7721 33.3542 59.9414 34.2266C60.1237 35.0859 60.4557 36.0104 60.9375 37H55.5078C55.3646 36.6354 55.1888 36.0951 54.9805 35.3789C54.8893 35.0534 54.8242 34.8385 54.7852 34.7344C53.8477 35.6458 52.8451 36.3294 51.7773 36.7852C50.7096 37.2409 49.5703 37.4688 48.3594 37.4688C46.224 37.4688 44.5378 36.8893 43.3008 35.7305C42.0768 34.5716 41.4648 33.1068 41.4648 31.3359C41.4648 30.1641 41.7448 29.1224 42.3047 28.2109C42.8646 27.2865 43.6458 26.5833 44.6484 26.1016C45.6641 25.6068 47.1224 25.1771 49.0234 24.8125C51.5885 24.3307 53.3659 23.8815 54.3555 23.4648V22.918C54.3555 21.8633 54.0951 21.1146 53.5742 20.6719C53.0534 20.2161 52.0703 19.9883 50.625 19.9883C49.6484 19.9883 48.8867 20.1836 48.3398 20.5742C47.793 20.9518 47.3503 21.6224 47.0117 22.5859ZM54.3555 27.0391C53.6523 27.2734 52.5391 27.5534 51.0156 27.8789C49.4922 28.2044 48.4961 28.5234 48.0273 28.8359C47.3112 29.3438 46.9531 29.9883 46.9531 30.7695C46.9531 31.5378 47.2396 32.2018 47.8125 32.7617C48.3854 33.3216 49.1146 33.6016 50 33.6016C50.9896 33.6016 51.9336 33.276 52.832 32.625C53.4961 32.1302 53.9323 31.5247 54.1406 30.8086C54.2839 30.3398 54.3555 29.4479 54.3555 28.1328V27.0391ZM63.2422 31.082L68.75 30.2422C68.9844 31.3099 69.4596 32.1237 70.1758 32.6836C70.8919 33.2305 71.8945 33.5039 73.1836 33.5039C74.6029 33.5039 75.6706 33.2435 76.3867 32.7227C76.8685 32.3581 77.1094 31.8698 77.1094 31.2578C77.1094 30.8411 76.9792 30.4961 76.7188 30.2227C76.4453 29.9622 75.8333 29.7214 74.8828 29.5C70.4557 28.5234 67.6497 27.6315 66.4648 26.8242C64.8242 25.7044 64.0039 24.1484 64.0039 22.1562C64.0039 20.3594 64.7135 18.849 66.1328 17.625C67.5521 16.401 69.7526 15.7891 72.7344 15.7891C75.5729 15.7891 77.6823 16.2513 79.0625 17.1758C80.4427 18.1003 81.3932 19.4674 81.9141 21.2773L76.7383 22.2344C76.5169 21.4271 76.0938 20.8086 75.4688 20.3789C74.8568 19.9492 73.9779 19.7344 72.832 19.7344C71.3867 19.7344 70.3516 19.9362 69.7266 20.3398C69.3099 20.6263 69.1016 20.9974 69.1016 21.4531C69.1016 21.8438 69.2839 22.1758 69.6484 22.4492C70.1432 22.8138 71.849 23.3281 74.7656 23.9922C77.6953 24.6562 79.7396 25.4701 80.8984 26.4336C82.0443 27.4102 82.6172 28.7708 82.6172 30.5156C82.6172 32.4167 81.8229 34.0508 80.2344 35.418C78.6458 36.7852 76.2956 37.4688 73.1836 37.4688C70.3581 37.4688 68.1185 36.8958 66.4648 35.75C64.8242 34.6042 63.75 33.0482 63.2422 31.082Z" fill="white"/>
<path d="M28.2422 70.5039L24.9219 74.7422C23.2943 73.9479 21.7318 72.8542 20.2344 71.4609C19.0755 72.5026 17.8451 73.2708 16.543 73.7656C15.2409 74.2604 13.6914 74.5078 11.8945 74.5078C8.32682 74.5078 5.64453 73.5052 3.84766 71.5C2.45443 69.9505 1.75781 68.1667 1.75781 66.1484C1.75781 64.3125 2.30469 62.6654 3.39844 61.207C4.49219 59.7357 6.1263 58.4596 8.30078 57.3789C7.32422 56.2201 6.58854 55.1198 6.09375 54.0781C5.59896 53.0234 5.35156 52.0273 5.35156 51.0898C5.35156 49.3581 6.04167 47.8932 7.42188 46.6953C8.8151 45.4844 10.7943 44.8789 13.3594 44.8789C15.8333 44.8789 17.7669 45.5104 19.1602 46.7734C20.5534 48.0365 21.25 49.5794 21.25 51.4023C21.25 52.5612 20.9049 53.6615 20.2148 54.7031C19.5247 55.7448 18.1315 56.9232 16.0352 58.2383L20.0195 63.4922C20.4883 62.6589 20.8919 61.5716 21.2305 60.2305L26.1914 61.3633C25.6966 63.1211 25.2669 64.4102 24.9023 65.2305C24.5378 66.0378 24.1471 66.7148 23.7305 67.2617C24.3424 67.8346 25.1302 68.4661 26.0938 69.1562C27.0703 69.8333 27.7865 70.2826 28.2422 70.5039ZM13.3008 54.9375L14.7852 53.8047C15.8789 52.9583 16.4258 52.1185 16.4258 51.2852C16.4258 50.582 16.1589 49.9831 15.625 49.4883C15.1042 48.9935 14.3945 48.7461 13.4961 48.7461C12.6237 48.7461 11.9401 48.9674 11.4453 49.4102C10.9505 49.8398 10.7031 50.3411 10.7031 50.9141C10.7031 51.5911 11.1198 52.4115 11.9531 53.375L13.3008 54.9375ZM11.1523 60.8945C9.88932 61.5326 8.94531 62.3008 8.32031 63.1992C7.69531 64.0977 7.38281 65.0156 7.38281 65.9531C7.38281 67.138 7.76693 68.1081 8.53516 68.8633C9.31641 69.6055 10.3581 69.9766 11.6602 69.9766C12.5195 69.9766 13.3464 69.8073 14.1406 69.4688C14.9349 69.1302 15.8008 68.5703 16.7383 67.7891L11.1523 60.8945ZM42.9492 74V45.3672H52.2266C55.7422 45.3672 58.0339 45.5104 59.1016 45.7969C60.7422 46.2266 62.1159 47.1641 63.2227 48.6094C64.3294 50.0417 64.8828 51.8971 64.8828 54.1758C64.8828 55.9336 64.5638 57.4115 63.9258 58.6094C63.2878 59.8073 62.474 60.7513 61.4844 61.4414C60.5078 62.1185 59.5117 62.5677 58.4961 62.7891C57.1159 63.0625 55.1172 63.1992 52.5 63.1992H48.7305V74H42.9492ZM48.7305 50.2109V58.3359H51.8945C54.1732 58.3359 55.6966 58.1862 56.4648 57.8867C57.2331 57.5872 57.832 57.1185 58.2617 56.4805C58.7044 55.8424 58.9258 55.1003 58.9258 54.2539C58.9258 53.2122 58.6198 52.3529 58.0078 51.6758C57.3958 50.9987 56.6211 50.5755 55.6836 50.4062C54.9935 50.276 53.6068 50.2109 51.5234 50.2109H48.7305ZM73.6914 59.5859L68.7109 58.6875C69.2708 56.6823 70.2344 55.1979 71.6016 54.2344C72.9688 53.2708 75 52.7891 77.6953 52.7891C80.1432 52.7891 81.9661 53.082 83.1641 53.668C84.362 54.2409 85.2018 54.9766 85.6836 55.875C86.1784 56.7604 86.4258 58.3945 86.4258 60.7773L86.3672 67.1836C86.3672 69.0065 86.4518 70.3542 86.6211 71.2266C86.8034 72.0859 87.1354 73.0104 87.6172 74H82.1875C82.0443 73.6354 81.8685 73.0951 81.6602 72.3789C81.569 72.0534 81.5039 71.8385 81.4648 71.7344C80.5273 72.6458 79.5247 73.3294 78.457 73.7852C77.3893 74.2409 76.25 74.4688 75.0391 74.4688C72.9036 74.4688 71.2174 73.8893 69.9805 72.7305C68.7565 71.5716 68.1445 70.1068 68.1445 68.3359C68.1445 67.1641 68.4245 66.1224 68.9844 65.2109C69.5443 64.2865 70.3255 63.5833 71.3281 63.1016C72.3438 62.6068 73.8021 62.1771 75.7031 61.8125C78.2682 61.3307 80.0456 60.8815 81.0352 60.4648V59.918C81.0352 58.8633 80.7747 58.1146 80.2539 57.6719C79.7331 57.2161 78.75 56.9883 77.3047 56.9883C76.3281 56.9883 75.5664 57.1836 75.0195 57.5742C74.4727 57.9518 74.0299 58.6224 73.6914 59.5859ZM81.0352 64.0391C80.332 64.2734 79.2188 64.5534 77.6953 64.8789C76.1719 65.2044 75.1758 65.5234 74.707 65.8359C73.9909 66.3438 73.6328 66.9883 73.6328 67.7695C73.6328 68.5378 73.9193 69.2018 74.4922 69.7617C75.0651 70.3216 75.7943 70.6016 76.6797 70.6016C77.6693 70.6016 78.6133 70.276 79.5117 69.625C80.1758 69.1302 80.612 68.5247 80.8203 67.8086C80.9635 67.3398 81.0352 66.4479 81.0352 65.1328V64.0391ZM97.1094 74H91.6211V53.2578H96.7188V56.207C97.5911 54.8138 98.3724 53.8958 99.0625 53.4531C99.7656 53.0104 100.56 52.7891 101.445 52.7891C102.695 52.7891 103.9 53.1341 105.059 53.8242L103.359 58.6094C102.435 58.0104 101.576 57.7109 100.781 57.7109C100.013 57.7109 99.362 57.9258 98.8281 58.3555C98.2943 58.7721 97.8711 59.5339 97.5586 60.6406C97.2591 61.7474 97.1094 64.0651 97.1094 67.5938V74ZM116.953 53.2578V57.6328H113.203V65.9922C113.203 67.6849 113.236 68.6745 113.301 68.9609C113.379 69.2344 113.542 69.4622 113.789 69.6445C114.049 69.8268 114.362 69.918 114.727 69.918C115.234 69.918 115.97 69.7422 116.934 69.3906L117.402 73.6484C116.126 74.1953 114.681 74.4688 113.066 74.4688C112.077 74.4688 111.185 74.306 110.391 73.9805C109.596 73.6419 109.01 73.2122 108.633 72.6914C108.268 72.1576 108.014 71.4414 107.871 70.543C107.754 69.9049 107.695 68.6159 107.695 66.6758V57.6328H105.176V53.2578H107.695V49.1367L113.203 45.9336V53.2578H116.953ZM139.629 74H134.141V63.4141C134.141 61.1745 134.023 59.7292 133.789 59.0781C133.555 58.4141 133.171 57.8997 132.637 57.5352C132.116 57.1706 131.484 56.9883 130.742 56.9883C129.792 56.9883 128.939 57.2487 128.184 57.7695C127.428 58.2904 126.908 58.9805 126.621 59.8398C126.348 60.6992 126.211 62.2878 126.211 64.6055V74H120.723V53.2578H125.82V56.3047C127.63 53.9609 129.909 52.7891 132.656 52.7891C133.867 52.7891 134.974 53.0104 135.977 53.4531C136.979 53.8828 137.734 54.4362 138.242 55.1133C138.763 55.7904 139.121 56.5586 139.316 57.418C139.525 58.2773 139.629 59.5078 139.629 61.1094V74ZM157.227 67.3984L162.695 68.3164C161.992 70.3216 160.879 71.8516 159.355 72.9062C157.845 73.9479 155.951 74.4688 153.672 74.4688C150.065 74.4688 147.396 73.2904 145.664 70.9336C144.297 69.0456 143.613 66.6628 143.613 63.7852C143.613 60.3477 144.512 57.6589 146.309 55.7188C148.105 53.7656 150.378 52.7891 153.125 52.7891C156.211 52.7891 158.646 53.8112 160.43 55.8555C162.214 57.8867 163.066 61.0052 162.988 65.2109H149.238C149.277 66.8385 149.72 68.1081 150.566 69.0195C151.413 69.918 152.467 70.3672 153.73 70.3672C154.59 70.3672 155.312 70.1328 155.898 69.6641C156.484 69.1953 156.927 68.4401 157.227 67.3984ZM157.539 61.8516C157.5 60.263 157.09 59.0586 156.309 58.2383C155.527 57.4049 154.577 56.9883 153.457 56.9883C152.259 56.9883 151.27 57.4245 150.488 58.2969C149.707 59.1693 149.323 60.3542 149.336 61.8516H157.539ZM172.734 74H167.246V53.2578H172.344V56.207C173.216 54.8138 173.997 53.8958 174.688 53.4531C175.391 53.0104 176.185 52.7891 177.07 52.7891C178.32 52.7891 179.525 53.1341 180.684 53.8242L178.984 58.6094C178.06 58.0104 177.201 57.7109 176.406 57.7109C175.638 57.7109 174.987 57.9258 174.453 58.3555C173.919 58.7721 173.496 59.5339 173.184 60.6406C172.884 61.7474 172.734 64.0651 172.734 67.5938V74ZM181.133 68.082L186.641 67.2422C186.875 68.3099 187.35 69.1237 188.066 69.6836C188.783 70.2305 189.785 70.5039 191.074 70.5039C192.493 70.5039 193.561 70.2435 194.277 69.7227C194.759 69.3581 195 68.8698 195 68.2578C195 67.8411 194.87 67.4961 194.609 67.2227C194.336 66.9622 193.724 66.7214 192.773 66.5C188.346 65.5234 185.54 64.6315 184.355 63.8242C182.715 62.7044 181.895 61.1484 181.895 59.1562C181.895 57.3594 182.604 55.849 184.023 54.625C185.443 53.401 187.643 52.7891 190.625 52.7891C193.464 52.7891 195.573 53.2513 196.953 54.1758C198.333 55.1003 199.284 56.4674 199.805 58.2773L194.629 59.2344C194.408 58.4271 193.984 57.8086 193.359 57.3789C192.747 56.9492 191.868 56.7344 190.723 56.7344C189.277 56.7344 188.242 56.9362 187.617 57.3398C187.201 57.6263 186.992 57.9974 186.992 58.4531C186.992 58.8438 187.174 59.1758 187.539 59.4492C188.034 59.8138 189.74 60.3281 192.656 60.9922C195.586 61.6562 197.63 62.4701 198.789 63.4336C199.935 64.4102 200.508 65.7708 200.508 67.5156C200.508 69.4167 199.714 71.0508 198.125 72.418C196.536 73.7852 194.186 74.4688 191.074 74.4688C188.249 74.4688 186.009 73.8958 184.355 72.75C182.715 71.6042 181.641 70.0482 181.133 68.082Z" fill="white"/>
</svg>
